<?xml version="1.0" encoding="utf-8"?>
<!-- Generator: Adobe Illustrator 21.1.0, SVG Export Plug-In . SVG Version: 6.00 Build 0)  -->
<svg version="1.1" id="图层_1" xmlns="http://www.w3.org/2000/svg" xmlns:xlink="http://www.w3.org/1999/xlink" x="0px" y="0px"
	 viewBox="0 0 115.3 115.3" style="enable-background:new 0 0 115.3 115.3;" xml:space="preserve">
<style type="text/css">
	.st0{fill:#F0F2CF;}
	.st1{fill:#D0D088;}
</style>
<g>
	<path class="st0" d="M71.8,55.4C65,57,41,60.8,37.6,59.6c-3.5-1.2,10-15.9,10-15.9c-0.9,0.9-9.1,4.2-10,3.6
		c-1.9-1.3,1.2-5.5,0.4-7.1c0.2,0.2-5,4.3-5.6,4.5c-2.5,0.6-4.6-1.2-6.8-2.1c-5-1.9-10.9-2.6-12.6,3.7c-1.6,6.4,14.3,12.6,13.1,16
		c-1.2,3.5,3.6,20.9,3.6,20.9s-2.3,10.3-0.9,13.6c1.4,3.3,27.3,7.1,27.3,7.1s2.7-6.8,0-7.4c-3.3-0.7-14-0.8-15.4-4.6
		c-1.2-3.4,6.3-5.8,8.6-6.8c1.5-0.7,21.5-8.1,21.9-6.8c1.1,4.2,12,8.3,15.4,10.1c2,1,7.2,5.2,9.5,4.8c2-0.3,5.3-5.2,4.7-7.3
		c-0.6-2-7.2-5.6-9.2-6.3c-8.2-3-10.1-9.8-11-17.8c-0.4-3.8,2.4-4.1,4-6.7c0.4-0.6,2.7-7.1,2.6-7.4C83.8,43.2,78.7,53.6,71.8,55.4z"
		/>
</g>
<g>
	<polygon class="st0" points="34.4,48.6 32.6,48.3 39,8.7 40.8,9 	"/>
</g>
<g>
	<polygon class="st0" points="37.7,24.9 29.9,10.6 31.5,9.7 37.9,21.8 44.8,13.6 46.2,14.7 	"/>
</g>
<g>
	<polygon class="st0" points="38.9,47.8 37.5,46.6 59.9,21.6 61.1,22.8 	"/>
</g>
<g>
	<path class="st0" d="M56.2,41.6L56.2,41.6L56.2,41.6L56.2,41.6L56.2,41.6z M56.7,40l-0.6,1.7l-10.4-2.8L43.6,29l-8.9,6.1L24.5,21.5
		l1.5-1.1l9.2,12.4l9.7-6.7l2.4,11.4L56.7,40L56.7,40z"/>
</g>
<g>
	<polygon class="st0" points="53.6,30.5 49.8,19.1 51.5,18.5 54.9,28.7 62,29.1 61.8,30.9 61.8,30.9 	"/>
</g>
<g>
	<polygon class="st1" points="41,59.1 44.9,75.9 61.9,70.6 60.5,57.5 	"/>
</g>
</svg>
