<?xml version="1.0" encoding="utf-8"?>
<!-- Generator: Adobe Illustrator 21.1.0, SVG Export Plug-In . SVG Version: 6.00 Build 0)  -->
<svg version="1.1" id="图层_1" xmlns="http://www.w3.org/2000/svg" xmlns:xlink="http://www.w3.org/1999/xlink" x="0px" y="0px"
	 viewBox="0 0 348 232" style="enable-background:new 0 0 348 232;" xml:space="preserve">
<style type="text/css">
	.st0{fill:#5C3E1C;}
	.st1{fill:#A75949;}
	.st2{fill:#C2735E;}
	.st3{fill:#D0D088;}
	.st4{fill:#E9D28C;}
	.st5{fill:#F0F2CF;}
</style>
<g>
	<path class="st0" d="M284.6,205.8L284.6,205.8L284.6,205.8L284.6,205.8L284.6,205.8z M285.4,202.3l-0.8,3.5L175.1,182l0,0
		c-0.1,0-6.9-1.5-13.9-5.1l0,0c-6.9-3.6-14.3-9.3-14.4-18.3l0,0c0-2,0.4-4.1,1.2-6.3l3.3,1.3l0,0c-0.7,1.8-1,3.5-1,5l0,0
		c-0.1,6.7,5.9,11.8,12.5,15.2l0,0c3.3,1.7,6.5,2.9,9,3.7l0,0c2.4,0.8,4,1.2,4,1.2L285.4,202.3L285.4,202.3z"/>
</g>
<g>
	<polygon class="st0" points="249.4,196.2 246.2,172 249.7,171.6 252.9,195.8 	"/>
</g>
<g>
	<polygon class="st0" points="203.9,185.2 200.5,184.2 206.5,164.3 209.9,165.3 	"/>
</g>
<g>
	<polygon class="st0" points="155.7,170.9 153.2,168.4 171,151.3 173.4,153.9 	"/>
</g>
<g>
	<path class="st1" d="M229.2,113.2l-12.4,3.2c0,0-3.8,11.9,0,14c3.7,2.1,13.4,5.9,20.4,7.5c6.9,1.6,15-13.4,15-17.7L229.2,113.2z"/>
</g>
<g>
	<path class="st2" d="M163.5,136.8c0,0,48.4,20.4,70.4,1.1c22.1-19.3,75.2-3.2,64.5-1.6c-10.8,1.6-19.9,24.2-39.8,34.4
		c-19.8,10.2-105.8-23.1-105.8-23.1C152.8,141.2,163.5,136.8,163.5,136.8z"/>
</g>
<g>
	<path class="st2" d="M250.6,110.7c1.1,1.6,10.2-1.6,12.9-1.6c2.7,0,9.2-0.6,15.6-8.1c6.4-7.5-10.2-19.4-8.6-17.2
		c1.6,2.1,3.2,11.8,1.1,11.8c-2.2,0-7,1.6-9.7-2.2c-2.7-3.7-22-10.3-18.8-7.5C247.4,89.6,249.5,109,250.6,110.7z"/>
</g>
<g>
	<path class="st2" d="M226.4,115.3l-5.9,8.1l-17.2-9.7l5.9-4.8c0,0-3.8-3.2-7-8.6c-3.3-5.4,0-11.8-5.4-18.8
		c-1.6-18.8,10.3-14.5,12.4-15c2.1-0.5,0,8.6,1.6,8.1c1.6-0.5,2.1,2.7,2.1,2.7l-2.1,7.5l1.6,8.6c0,0,7.6,4.3,9.7,6.4L226.4,115.3z"
		/>
</g>
<g>
	<path class="st0" d="M231.7,133.6c-1.6,2.1,0,8.6,5.4,13.4c5.3,4.9,4.2,21,2.1,19.9c-2.2-1.1-11.3-5.4-17.2-9.7
		c-5.9-4.3-52.6-9.1-55.3-11.8c-2.7-2.6,0.6-6.9,2.7-10.7c2.2-3.8,14.5-12.9,18.3-12.4c3.8,0.6,7.5-3.7,10.2-4.8
		C197.9,117.5,233.4,131.5,231.7,133.6z"/>
</g>
<g>
	<path class="st3" d="M210.8,128.3c-1.6,1-7.5-0.6-10.2-3.8c-2.6-3.2-3.7-5.9-2.1-10.2s4.8,2.1,4.8,2.1s6-3.2,8.1-0.5
		C211.4,115.9,212.4,127.2,210.8,128.3z"/>
</g>
<g>
	<path class="st4" d="M244.3,89.4c1.8,1.2,5.9,11.2,6.2,13.6s0.3,4.7-0.3,5.6s-16.2-1.7-17.8-3.4c-1.6-1.7-10.2-5.4-9.1-8.7
		c1.1-3.2,4.1-9.1,4.1-9.1C229.5,85.9,242.4,88.3,244.3,89.4z"/>
</g>
<g>
	<path class="st5" d="M259.8,123.6c0,0-1.6-8.1-5.4-12.9s-6-3.8-8.1-4.3c-2.1-0.6-4.8,0-7.5-1.1s-6.4-4.9-9.1-5.4s-5.4-3.2-8.1-4.8
		c-2.7-1.7-2.7,4.8-5.9,6.4c-3.2,1.6,0,8,1.6,11.8c1.6,3.7,7.5,3.2,10.2,4.8s16.2-0.5,18.3,1.6c2.1,2.1,3.7,4.8,6.4,4.8L259.8,123.6
		z"/>
</g>
<g>
	<path class="st5" d="M252.8,100.4c0.6-3.8-3.2-9.7-4.8-12.4c-1.6-2.7-11.2-2.7-15-3.8c-3.8-1-7,5.4-7,5.4s3.2-1.1,6.4,0
		s6.5-1.1,8.6,2.7c2.1,3.7,4.2,8.3,6.4,11.8C250.1,108.4,252.2,104.1,252.8,100.4z"/>
</g>
<g>
	<path class="st5" d="M275.4,82.6c1.6-1.6-2.2-4.3-3.8-5.9s-6.4,1.6-9.1,1.6c-2.7,0-1.1,6.5,0.5,8.1s5.4,1,7.5,0.5
		C270.5,86.9,273.7,84.2,275.4,82.6z"/>
</g>
<g>
	<path class="st5" d="M208.6,116c-1.1,2.1,1.1,16.1,1.1,16.1s5.9,0,7-1.6c1.1-1.6,1.4-10.5,0-14C215.7,113.8,209.8,113.8,208.6,116z
		"/>
</g>
<g>
	<path class="st5" d="M203.3,84.3c-2.6-0.5-6.4-2.7-6.4-2.7s0,4.3,0.5,5.9s2.2,5.4,4.3,5.4c2.1,0,8-3.3,10.7-3.8s0-5.9-0.5-8.6
		C211.9,80.5,206,84.8,203.3,84.3z"/>
</g>
<g>
	<path class="st2" d="M224.8,100.9c0,0,1.6,2.7,3.2,3.8c1.6,1,4.3,0.5,4.3,0.5s-2.2-2.2-2.7-5.4L224.8,100.9z"/>
</g>
<g>
	<path class="st0" d="M230.9,95.9c-0.1,0.1-0.1,0.1-0.2,0.1l0,0c-0.2,0-0.3-0.1-0.4-0.3l0,0c-0.5-1.3-1.6-2.8-2.9-3l0,0
		c-0.3,0-0.4-0.3-0.4-0.5l0,0c0-0.3,0.3-0.4,0.5-0.4l0,0c1.9,0.4,3,2.2,3.6,3.5l0,0C231.2,95.5,231.1,95.8,230.9,95.9L230.9,95.9z"
		/>
</g>
<g>
	<path class="st0" d="M243,101c-0.1,0.2-0.3,0.3-0.5,0.3l0,0h-0.1l0,0c-0.3-0.1-0.4-0.4-0.3-0.6l0,0l0,0c0.1-0.2,0.1-0.4,0.1-0.5
		l0,0c0-0.6-0.4-1.1-1.1-1.5l0,0c-0.7-0.4-1.7-0.6-2.7-0.6l0,0c-0.8,0-1.6,0.1-2.1,0.4l0,0c-0.2,0.1-0.5,0-0.6-0.2l0,0
		c-0.1-0.2,0-0.5,0.2-0.6l0,0c0.7-0.3,1.6-0.5,2.5-0.5l0,0c2.1,0.1,4.6,0.9,4.7,3l0,0C243.1,100.5,243.1,100.7,243,101L243,101z"/>
</g>
<g>
	<path class="st2" d="M47.4,129.6c-14.5,0-14.8-1.8,0.1-1.7l0,0c4.9,0,9.8,0.3,14.5,0.8l0,0c13.2,1.4,26.4,3.4,39.4,3.8l0,0
		c2.8,0.1,6.1,0.3,9.4,0.3l0,0c7.1,0,14.5-0.9,18.9-4.9l0.6-0.6l0.6,0.6l0,0c2.8,3,7.1,4.4,11.7,4.4l0,0c4.7,0,9.5-1.5,13.2-4.1l0,0
		c1.2-0.9,2.3-1.9,3.2-3l0,0c-1.4-0.7-2.7-1.6-3.9-2.8l0,0c-2.7-2.7-3.8-5.4-3.8-7.7l0,0c0-3.8,2.9-6.5,6-6.5l0,0
		c2.6-0.1,5.2,2.1,6,6.4l0,0c0.2,1,0.3,1.9,0.3,2.8l0,0c0,2.5-0.7,4.9-1.9,6.9l0,0c1.6,0.5,3.4,0.7,5.1,0.7l0,0
		c3.1,0,6.4-0.7,9.1-1.8l0,0c8.9-3.7,11.9-11.1,12.1-20.6l0,0c0.2-10.9-0.6-19.4,5.9-29.4l0,0c3.9-6.1,10-11,17.2-11l0,0
		c2,0,4.1,0.4,6.2,1.2l0,0c5.3,2,7.8,5.5,7.8,8.9l0,0c0,5-4.9,9.2-11.4,9.2l0,0c-0.8,0-1.5-0.1-2.3-0.2l0.3-1.8l0,0
		c0.7,0.2,1.3,0.2,2,0.2l0,0c5.8,0,9.7-3.7,9.7-7.4l0,0c0-2.5-1.8-5.3-6.7-7.3l0,0c-1.9-0.8-3.8-1.1-5.6-1.1l0,0
		c-6.3,0-11.9,4.4-15.7,10.2l0,0c-6.2,9.5-5.5,17.4-5.7,28.5l0,0c-0.1,9.7-3.5,18.2-13.2,22.2l0,0c-3,1.2-6.4,2-9.8,2l0,0
		c-2.1,0-4.2-0.2-6.1-0.9l0,0c-3.9,5.2-11.2,8.1-18.1,8.1l0,0c-4.6,0-9.2-1.3-12.4-4.3l0,0c-5,4.1-12.5,4.8-19.4,4.8l0,0
		c-3.4,0-6.7-0.2-9.5-0.3l0,0c-13.2-0.4-26.4-2.4-39.5-3.8l0,0C57.1,129.9,52.3,129.6,47.4,129.6L47.4,129.6z M161.6,115
		c-0.8-3.8-2.6-5-4.4-5l0,0c-2,0-4.2,1.8-4.2,4.7l0,0c0,1.8,0.9,4,3.3,6.5l0,0c1.1,1.1,2.3,1.9,3.7,2.5l0,0c1.1-1.8,1.8-4,1.8-6.3
		l0,0C161.8,116.7,161.8,115.8,161.6,115L161.6,115z"/>
</g>
</svg>
