<?xml version="1.0" encoding="utf-8"?>
<!-- Generator: Adobe Illustrator 21.1.0, SVG Export Plug-In . SVG Version: 6.00 Build 0)  -->
<svg version="1.1" id="图层_1" xmlns="http://www.w3.org/2000/svg" xmlns:xlink="http://www.w3.org/1999/xlink" x="0px" y="0px"
	 viewBox="0 0 2000 1000" style="enable-background:new 0 0 2000 1000;" xml:space="preserve">
<style type="text/css">
	.st0{fill:#F1F3D0;}
	.st1{fill:#5D3F1C;}
	.st2{fill:#C3735F;}
</style>
<g>
	<path class="st0" d="M-13.5,409.8c0,0,588.4-105.3,875.2-4.8s569.2,167.5,693.4,148.3s370.1-157.7,464.9-124.2
		c0,114.8,0,574.9,0,574.9H-13.5V409.8z"/>
</g>
<g>
	<polygon class="st0" points="1170.3,513.8 1168.1,398.7 1497.1,400.9 1511.2,582.2 	"/>
</g>
<g>
	<rect x="1200.8" y="405.8" class="st1" width="35.4" height="72.9"/>
</g>
<g>
	<rect x="1318.6" y="457.4" class="st1" width="39.9" height="49.4"/>
</g>
<g>
	<polygon class="st2" points="1128.2,417.4 1250.3,311.8 1509,309.4 1527.7,426.9 	"/>
</g>
<g>
	<polygon class="st1" points="1417.1,573.6 1499.9,274 1578.8,577.3 	"/>
</g>
<g>
	<polygon class="st0" points="1503.9,201.8 1520.6,235.9 1558.4,241.5 1531.2,268 1537.7,305.8 1503.9,288.1 1470.1,305.8 
		1476.6,268 1449.1,241.5 1486.9,235.9 	"/>
</g>
<g>
	<polygon class="st0" points="1063.6,496.1 1079.2,352.8 1031.7,356.6 1019.3,390.1 1001.7,384.8 1012.3,356.6 962.8,356.6 
		960.9,337.1 982.3,335.3 966.4,314.2 975.2,310.7 999.8,333.6 1010.3,335.3 994.4,298.3 1013.9,310.7 1024.7,335.3 1075.7,335.3 
		1045.7,305.3 1040.6,319.4 1028.2,315.9 1028.2,298.3 957.4,268.3 960.9,247 1006.8,266.4 1001.7,239.9 964.4,225.9 975.2,208.1 
		999.8,218.5 992.9,192.2 1010.3,190.5 1015.8,215.2 1033.3,194 1044.1,208.1 1021.2,232.9 1028.2,268.3 1072.2,308.8 1070.6,273.5 
		1036.8,248.8 1040.6,231.1 1070.6,247 1072.2,222.1 1044.1,192.2 1051.2,181.6 1075.7,194 1063.6,156.7 1082.7,155.1 1090.1,187 
		1106,158.7 1120.1,176.1 1118.1,178.9 1093.6,211.6 1091.6,314.2 1123.6,239.9 1120.1,192.2 1136,183.4 1137.5,201.1 1150.1,181.6 
		1158.9,192.2 1144.6,218.5 1169.5,220.5 1174.9,234.6 1141.1,236.4 1127.1,277 1151.9,250.5 1160.5,255.9 1179.9,248.8 1187,260.9 
		1164,268.3 1187,282.3 1179.9,292.9 1153.6,278.8 1125.2,292.9 1106,324.7 1125.2,321.2 1134,301.8 1143,300 1139.5,314.2 
		1192.5,300 1194.3,315.9 1176.6,315.9 1190.5,322.9 1187,338.8 1160.5,326.4 1134,337.1 1153.6,351.2 1137.5,358.3 1107.7,342.4 
		1106,400.7 1118.1,391.8 1120.1,407.7 1107.7,422.1 1111.1,503.1 	"/>
</g>
<g>
	<path class="st1" d="M1512,860.7c0-28.3,5.3-57.5,18.1-80l0,0c12.7-22.4,33-37.8,61.3-37.8l0,0c23,0,36.1,17.4,43.4,38.9l0,0
		c7.3,21.7,8.9,48.4,8.9,69.4l0,0c0,20.5-1.6,35.6-1.6,35.6l0,0l0,0l-4.8-0.5c0,0,1.6-14.9,1.6-35.1l0,0c0-20.7-1.8-47.2-8.9-68.1
		l0,0c-7-20.7-18.9-35.6-38.9-35.6l0,0c-26.7,0-45.1,14.1-57.3,35.4l0,0c-12.1,21.4-17.6,49.7-17.6,77.5l0,0c0,8.6,0.5,17.6,1.6,26
		l0,0l-4.8,0.5C1512.5,878.9,1512,869.9,1512,860.7L1512,860.7z"/>
</g>
<g>
	<path class="st0" d="M1585.2,759.7c-23,5.1-60.8-32.4-44-64.6c16.7-32.4,68.4-31.1,81.3-8.9
		C1635.4,708.1,1631.6,749.4,1585.2,759.7z"/>
	<path class="st1" d="M1534.7,712.1c0-6,1.3-12.1,4.3-18.1l0,0c9.4-18.4,29.5-26.2,47.8-26.2l0,0c15.9,0,31.1,6,37.8,17l0,0
		c4.3,7.3,6.8,16.2,6.8,25.7l0,0c0,21-12.7,44.4-45.7,51.3l0,0l-0.5-2.5l0.5,2.5c-1.6,0.3-3.3,0.5-4.8,0.5l0,0
		C1560.4,762.3,1535,738.6,1534.7,712.1L1534.7,712.1z M1586.9,672.7c-17,0-35.1,7.3-43.4,23.7l0,0c-2.7,5.1-3.8,10.6-3.8,15.7l0,0
		c0,11.6,6,23.2,14.1,31.8l0,0c8.1,8.6,18.7,14.1,27,14.1l0,0c1.3,0,2.7,0,3.8-0.3l0,0l0,0c31.1-7,41.9-27.5,41.9-46.7l0,0
		c0-8.6-2.2-17-6-23.2l0,0C1615.2,678.3,1601.6,672.7,1586.9,672.7L1586.9,672.7C1587.1,672.7,1586.9,672.7,1586.9,672.7
		L1586.9,672.7z"/>
</g>
<g>
	<path class="st2" d="M1622,726.7c0,0,7.8,20,2.7,27c-5.1,7-48.4,16.2-48.4,16.2s-12.1,13.6-16.2,12.9c-3.8-0.5-31.1,42.7-35.6,41.9
		c-4.6-0.5-23.7-12.1-19.4-18.7c-4.6,2.7-27-12.1-20.7-21.4c6.5-8.9,54.3-30.3,56.8-31.1c2.7-0.5-9.8-21.9-0.5-23.7
		c8.9-1.8,27,8.9,41.9,8.4C1597.3,737.8,1618.2,724.9,1622,726.7z"/>
</g>
</svg>
